<svg xmlns="http://www.w3.org/2000/svg" aria-hidden="true" style="position:absolute;width:0;height:0;overflow:hidden">
  <defs>
    <symbol id="arrow-right" viewBox="0 0 32 32">
      <path d="M21.724 16l-4.195-4.195c-0.26-0.26-0.26-0.682 0-0.943s0.682-0.26 0.943 0l5.333 5.333c0.26 0.26 0.26 0.682 0 0.943l-5.333 5.333c-0.26 0.26-0.682 0.26-0.943 0s-0.26-0.682 0-0.943l4.195-4.195h-11.724c-0.368 0-0.667-0.298-0.667-0.667s0.298-0.667 0.667-0.667h11.724zM16.667 29.333c-6.996 0-12.667-5.671-12.667-12.667s5.671-12.667 12.667-12.667c6.996 0 12.667 5.671 12.667 12.667s-5.671 12.667-12.667 12.667zM16.667 28c6.259 0 11.333-5.074 11.333-11.333s-5.074-11.333-11.333-11.333c-6.259 0-11.333 5.074-11.333 11.333s5.074 11.333 11.333 11.333z"></path>
    </symbol>
    <symbol id="chocolate-bar" viewBox="0 0 32 32">
      <path fill="#111" d="m13.822 2.413 7.527 7.536.08-.08a.856.856 0 0 1 1.184-.013l.873.873c.305.305.315.77.083 1.094l-.004.007-.143.192 6.16 6.16c.55.55.55 1.43 0 1.98l-9.43 9.43c-.55.55-1.43.55-1.98 0l-4.447-4.447a.853.853 0 0 1-.612.317.842.842 0 0 1-.644-.246l-2.6-2.6a.856.856 0 0 1-.013-1.184l.006-.007.077-.076-7.527-7.527c-.55-.55-.55-1.43 0-1.98l9.43-9.43c.55-.55 1.43-.55 1.98 0v.001zm6.582 8.48-1.756-1.755a.59.59 0 0 0-.85 0l-3.58 3.58a.602.602 0 0 0 0 .86l1.749 1.749.61-.61-1.565-1.565 3.21-3.22 1.569 1.574.613-.613zm-5.075 5.073-1.754-1.754a.59.59 0 0 0-.85 0l-3.59 3.59c-.24.23-.24.61 0 .85l1.752 1.752.616-.616-1.57-1.564 3.22-3.21 1.564 1.563.612-.611zM8.822 8.194l3.58 3.58c.24.24.62.24.85-.01l3.58-3.58a.57.57 0 0 0 .18-.42h.01c0-.15-.06-.31-.18-.43l-3.58-3.58a.602.602 0 0 0-.86 0l-3.58 3.59c-.24.23-.24.61 0 .85zm-5.07 5.07 3.58 3.58c.24.24.62.24.85 0l3.58-3.58a.578.578 0 0 0 .18-.43h.01c0-.16-.06-.31-.18-.43l-3.58-3.58a.59.59 0 0 0-.85 0l-3.59 3.59c-.24.23-.24.61 0 .85zm6.933 8.753 2.362 2.363 9.636-13.04-.655-.655-11.343 11.332z" style="fill:var(--color1, #111)"/>
      <path fill="#fd9222" d="m13.822 2.413 7.527 7.536.08-.08a.856.856 0 0 1 1.184-.013l.873.873c.305.305.315.77.083 1.094l-.004.007-.143.192 6.16 6.16c.55.55.55 1.43 0 1.98l-9.43 9.43c-.55.55-1.43.55-1.98 0l-4.447-4.447a.853.853 0 0 1-.612.317.842.842 0 0 1-.644-.246l-2.6-2.6a.856.856 0 0 1-.013-1.184l.006-.007.077-.076-7.527-7.527c-.55-.55-.55-1.43 0-1.98l9.43-9.43c.55-.55 1.43-.55 1.98 0v.001zm6.582 8.48-1.756-1.755a.59.59 0 0 0-.85 0l-3.58 3.58a.602.602 0 0 0 0 .86l1.749 1.749.61-.61-1.565-1.565 3.21-3.22 1.569 1.574.613-.613zm-5.075 5.073-1.754-1.754a.59.59 0 0 0-.85 0l-3.59 3.59c-.24.23-.24.61 0 .85l1.752 1.752.616-.616-1.57-1.564 3.22-3.21 1.564 1.563.612-.611zM8.822 8.194l3.58 3.58c.24.24.62.24.85-.01l3.58-3.58a.57.57 0 0 0 .18-.42h.01c0-.15-.06-.31-.18-.43l-3.58-3.58a.602.602 0 0 0-.86 0l-3.58 3.59c-.24.23-.24.61 0 .85zm-5.07 5.07 3.58 3.58c.24.24.62.24.85 0l3.58-3.58a.578.578 0 0 0 .18-.43h.01c0-.16-.06-.31-.18-.43l-3.58-3.58a.59.59 0 0 0-.85 0l-3.59 3.59c-.24.23-.24.61 0 .85zm6.933 8.753 2.362 2.363 9.636-13.04-.655-.655-11.343 11.332z" style="fill:var(--color2, #fd9222)"/>
    </symbol>
    <symbol id="coin" viewBox="0 0 32 32">
      <path fill="#fd9222" d="M16 2.667c-7.333 0-13.333 6-13.333 13.333s6 13.333 13.333 13.333 13.333-6 13.333-13.333S23.333 2.667 16 2.667zm0 24c-5.867 0-10.667-4.8-10.667-10.667S10.133 5.333 16 5.333 26.667 10.133 26.667 16 21.867 26.667 16 26.667z" style="fill:var(--color2, #fd9222)"/>
      <path fill="#fd9222" d="M17.733 14.667h-3.467c-.667 0-1.2-.533-1.2-1.2s.533-1.2 1.2-1.2h4.933c.8 0 1.333-.533 1.333-1.333s-.533-1.333-1.333-1.333h-1.867v-1.2c0-.8-.533-1.333-1.333-1.333s-1.333.533-1.333 1.333v1.2h-.4c-2.133 0-3.867 1.733-3.867 3.867s1.733 3.867 3.867 3.867h3.333c.667 0 1.2.533 1.2 1.2s-.533 1.2-1.2 1.2h-4.933c-.8 0-1.333.533-1.333 1.333s.533 1.333 1.333 1.333h2v1.2c0 .8.533 1.333 1.333 1.333s1.333-.533 1.333-1.333v-1.2h.4c2.133 0 3.867-1.733 3.867-3.867s-1.733-3.867-3.867-3.867z" style="fill:var(--color2, #fd9222)"/>
    </symbol>
    <symbol id="down-arrow" viewBox="0 0 32 32">
      <path d="M16.947 17.867a1.334 1.334 0 0 1-1.894 0l-6.107-6.12a1.334 1.334 0 1 0-1.894 1.88l6.12 6.12a4.001 4.001 0 0 0 5.654 0l6.12-6.12a1.337 1.337 0 0 0-.434-2.172 1.331 1.331 0 0 0-1.46.292l-6.107 6.12z"/>
    </symbol>
    <symbol id="facebook" viewBox="0 0 19 32">
      <path d="M16.024 5.72h3.131v-5.717h-5.69c-0.474-0.020-6.261-0.131-7.761 5.589-0.022 0.060-0.501 1.42-0.501 4.597l-5.203 0.015v5.996l5.21-0.015v15.814h7.958v-15.801h5.267v-6.011h-5.267v-1.892c0-1.175 0.495-2.576 2.856-2.576zM17.118 11.504v3.378h-5.267v15.801h-5.324v-15.818l-5.21 0.015v-3.363l5.223-0.015-0.013-0.67c-0.068-3.365 0.411-4.781 0.433-4.849 1.294-4.926 6.237-4.678 6.449-4.665l4.43 0.001v3.083h-1.815c-3.077 0-4.173 2.011-4.173 3.893v3.208h5.267z"></path>
    </symbol>
    <symbol id="instagram" viewBox="0 0 32 32">
      <path d="M30.625 9c0-4.208-3.416-7.625-7.625-7.625h-14c-4.208 0-7.625 3.417-7.625 7.625 0 0 0 14 0 14 0 4.209 3.417 7.625 7.625 7.625 0 0 14 0 14 0 4.209 0 7.625-3.416 7.625-7.625 0 0 0-14 0-14zM29.375 9v14c0 3.518-2.857 6.375-6.375 6.375h-14c-3.518 0-6.375-2.857-6.375-6.375v-14c0-3.518 2.857-6.375 6.375-6.375h14c3.518 0 6.375 2.857 6.375 6.375z"></path>
      <path d="M16 8.75c-4.002 0-7.25 3.249-7.25 7.25s3.249 7.25 7.25 7.25c4.002 0 7.25-3.249 7.25-7.25s-3.249-7.25-7.25-7.25zM16 10c3.311 0 6 2.689 6 6s-2.689 6-6 6c-3.311 0-6-2.689-6-6s2.689-6 6-6z"></path>
      <path d="M24.5 5.375c-1.173 0-2.125 0.952-2.125 2.125s0.952 2.125 2.125 2.125c1.173 0 2.125-0.952 2.125-2.125s-0.952-2.125-2.125-2.125zM24.5 6.625c0.483 0 0.875 0.392 0.875 0.875s-0.392 0.875-0.875 0.875c-0.483 0-0.875-0.392-0.875-0.875s0.392-0.875 0.875-0.875z"></path>
    </symbol>
    <symbol id="spoon" viewBox="0 0 32 32">
      <path fill="#fd9222" d="M15.451 14.106a5.154 5.154 0 0 1-1.177-3.282c0-4.324 5.181-8.642 10.362-8.642a5.183 5.183 0 0 1 5.181 5.182c0 5.182-4.318 10.364-8.646 10.364a5.151 5.151 0 0 1-3.281-1.177L5.132 29.312a1.73 1.73 0 0 1-2.445-2.445l12.764-12.761z" style="fill:var(--color2, #fd9222)"/>
    </symbol>
    <symbol id="twitter" viewBox="0 0 39 32">
      <path d="M38.321 3.739c-0.259-0.175-0.602-0.166-0.851 0.023-0.328 0.249-0.862 0.446-1.437 0.598 1.497-1.677 1.529-2.797 1.513-3.055-0.017-0.266-0.177-0.502-0.418-0.615s-0.525-0.086-0.741 0.070c-1.684 1.224-3.361 1.482-4.358 1.508-1.531-1.465-3.519-2.268-5.635-2.268-4.53 0-8.215 3.735-8.215 8.325 0 0.394 0.027 0.789 0.082 1.179-7.851-0.089-14.226-7.611-14.292-7.69-0.153-0.183-0.386-0.281-0.624-0.26s-0.451 0.156-0.571 0.363c-2.259 3.92-0.748 7.362 0.634 9.333-0.245-0.13-0.443-0.259-0.561-0.346-0.22-0.164-0.513-0.191-0.759-0.070s-0.404 0.37-0.408 0.644c-0.061 3.735 1.737 5.874 3.427 7.057-0.225-0.021-0.454 0.062-0.61 0.232-0.176 0.191-0.237 0.461-0.162 0.709 1.167 3.822 4.035 5.12 5.859 5.561-3.751 2.92-9.271 1.98-9.332 1.97-0.333-0.059-0.663 0.116-0.798 0.426s-0.043 0.671 0.226 0.875c3.959 3.022 8.695 3.691 12.115 3.691 2.587-0 4.423-0.384 4.599-0.422 17.327-4.106 17.814-19.977 17.775-22.578 3.253-3.025 3.761-4.177 3.84-4.462 0.083-0.302-0.036-0.624-0.295-0.799zM33.541 8.152c-0.163 0.15-0.249 0.366-0.234 0.587 0.046 0.702 0.932 17.253-16.628 21.414-0.080 0.017-7.060 1.473-13.111-1.524 2.557-0.071 6.223-0.741 8.777-3.608 0.193-0.216 0.24-0.526 0.12-0.789-0.119-0.261-0.379-0.428-0.665-0.428-0.002 0-0.005 0-0.007 0-0.036 0.023-3.876-0.004-5.634-3.657 0.708 0.040 1.581-0.004 2.276-0.324 0.286-0.132 0.456-0.433 0.42-0.746s-0.267-0.568-0.576-0.633c-0.197-0.041-4.471-0.997-5.069-5.66 0.649 0.283 1.478 0.516 2.299 0.39 0.282-0.042 0.513-0.245 0.593-0.519s-0.008-0.569-0.223-0.757c-0.183-0.159-4.197-3.727-2.294-8.328 2.066 2.168 8.186 7.802 15.601 7.376 0.217-0.012 0.418-0.122 0.547-0.297s0.173-0.399 0.12-0.611c-0.14-0.559-0.212-1.135-0.212-1.712 0-3.784 3.030-6.863 6.753-6.863 1.821 0 3.53 0.727 4.81 2.047 0.135 0.139 0.319 0.219 0.512 0.222 0.775 0.011 2.049-0.080 3.488-0.657-0.415 0.517-1.025 1.136-1.922 1.841-0.254 0.199-0.347 0.541-0.229 0.841s0.422 0.491 0.739 0.462c0.17-0.014 1.039-0.090 2.021-0.303-0.535 0.577-1.268 1.313-2.271 2.236z"></path>
    </symbol>
  </defs>
</svg>
